<svg width="129" height="129" viewBox="0 0 129 129" fill="none" xmlns="http://www.w3.org/2000/svg">
<path d="M59.125 91.375L69.875 102.125C70.9338 103.184 72.1907 104.024 73.5741 104.597C74.9575 105.17 76.4402 105.465 77.9375 105.465C79.4348 105.465 80.9175 105.17 82.3009 104.597C83.6843 104.024 84.9412 103.184 86 102.125C87.0588 101.066 87.8987 99.8093 88.4717 98.4259C89.0447 97.0425 89.3396 95.5598 89.3396 94.0625C89.3396 92.5652 89.0447 91.0825 88.4717 89.6991C87.8987 88.3157 87.0588 87.0588 86 86" stroke="#35BBDF" stroke-width="5" stroke-linecap="round" stroke-linejoin="round"/>
<path d="M75.25 75.2498L88.6875 88.6873C90.8258 90.8256 93.726 92.0269 96.75 92.0269C99.774 92.0269 102.674 90.8256 104.813 88.6873C106.951 86.549 108.152 83.6488 108.152 80.6248C108.152 77.6008 106.951 74.7006 104.813 72.5623L83.9575 51.7073C80.9341 48.6876 76.8356 46.9915 72.5625 46.9915C68.2894 46.9915 64.1909 48.6876 61.1675 51.7073L56.4375 56.4373C54.2992 58.5756 51.399 59.7769 48.375 59.7769C45.351 59.7769 42.4508 58.5756 40.3125 56.4373C38.1742 54.299 36.9729 51.3988 36.9729 48.3748C36.9729 45.3508 38.1742 42.4506 40.3125 40.3123L55.4163 25.2085C60.3195 20.3181 66.7139 17.2027 73.5872 16.3558C80.4605 15.5088 87.4199 16.9785 93.3638 20.5323L95.89 22.0373C98.1786 23.4186 100.9 23.8977 103.523 23.381L112.875 21.4998" stroke="#35BBDF" stroke-width="5" stroke-linecap="round" stroke-linejoin="round"/>
<path d="M112.875 16.125L118.25 75.25H107.5" stroke="#35BBDF" stroke-width="5" stroke-linecap="round" stroke-linejoin="round"/>
<path d="M16.125 16.125L10.75 75.25L45.6875 110.188C47.8258 112.326 50.726 113.527 53.75 113.527C56.774 113.527 59.6742 112.326 61.8125 110.188C63.9508 108.049 65.1521 105.149 65.1521 102.125C65.1521 99.101 63.9508 96.2008 61.8125 94.0625" stroke="#35BBDF" stroke-width="5" stroke-linecap="round" stroke-linejoin="round"/>
<path d="M16.125 21.5H59.125" stroke="#35BBDF" stroke-width="5" stroke-linecap="round" stroke-linejoin="round"/>
</svg>
